<svg xmlns="http://www.w3.org/2000/svg" xmlns:xlink="http://www.w3.org/1999/xlink" width="1330" height="740" contentScriptType="application/ecmascript" contentStyleType="text/css" preserveAspectRatio="none" style="width:1330px;height:740px" version="1.1" viewBox="0 0 1330 740" zoomAndPan="magnify"><defs><filter id="f1s8sihw87udhy" width="300%" height="300%" x="-1" y="-1"><feGaussianBlur result="blurOut" stdDeviation="2"/><feColorMatrix in="blurOut" result="blurOut2" type="matrix" values="0 0 0 0 0 0 0 0 0 0 0 0 0 0 0 0 0 0 .4 0"/><feOffset dx="4" dy="4" in="blurOut2" result="blurOut3"/><feBlend in="SourceGraphic" in2="blurOut3" mode="normal"/></filter></defs><g><text x="514.313" y="26.708" fill="#000" font-family="sans-serif" font-size="18" lengthAdjust="spacingAndGlyphs" textLength="300">Aggregate Component Conditions</text><ellipse cx="541.5" cy="40.953" fill="#000" filter="url(#f1s8sihw87udhy)" rx="10" ry="10" style="stroke:none;stroke-width:1"/><rect width="229" height="33.969" x="427" y="70.953" fill="#00FF7F" filter="url(#f1s8sihw87udhy)" style="stroke:#a80036;stroke-width:1.5"/><text x="437" y="92.092" fill="#000" font-family="sans-serif" font-size="12" lengthAdjust="spacingAndGlyphs" textLength="21">Set</text><text x="462" y="92.092" fill="#000" font-family="sans-serif" font-size="12" font-weight="bold" lengthAdjust="spacingAndGlyphs" textLength="184">ReconcileComplete = True</text><polygon fill="#FEFECE" points="460 124.922 623 124.922 635 136.922 623 148.922 460 148.922 448 136.922 460 124.922" filter="url(#f1s8sihw87udhy)" style="stroke:#a80036;stroke-width:1.5"/><text x="460" y="140.73" fill="#000" font-family="sans-serif" font-size="11" lengthAdjust="spacingAndGlyphs" textLength="163">(1) [Degraded = True] Exists</text><text x="635" y="134.328" fill="#000" font-family="sans-serif" font-size="11" lengthAdjust="spacingAndGlyphs" textLength="14">no</text><polygon fill="#FF4500" points="163 158.922 297 158.922 287 206.859 153 206.859" filter="url(#f1s8sihw87udhy)" style="stroke:#a80036;stroke-width:1.5"/><text x="163" y="180.06" fill="#000" font-family="sans-serif" font-size="12" lengthAdjust="spacingAndGlyphs" textLength="83">&lt;&lt;implicit&gt;&gt;</text><text x="163" y="194.029" fill="#000" font-family="sans-serif" font-size="12" font-weight="bold" lengthAdjust="spacingAndGlyphs" textLength="120">Degraded = True</text><polygon fill="#FEFECE" points="136.5 253.633 313.5 253.633 325.5 265.633 313.5 277.633 136.5 277.633 124.5 265.633 136.5 253.633" filter="url(#f1s8sihw87udhy)" style="stroke:#a80036;stroke-width:1.5"/><text x="136.5" y="269.441" fill="#000" font-family="sans-serif" font-size="11" lengthAdjust="spacingAndGlyphs" textLength="177">(2) [Progressing = True] Exists</text><text x="110.5" y="263.039" fill="#000" font-family="sans-serif" font-size="11" lengthAdjust="spacingAndGlyphs" textLength="14">no</text><text x="325.5" y="263.039" fill="#000" font-family="sans-serif" font-size="11" lengthAdjust="spacingAndGlyphs" textLength="20">yes</text><rect width="209" height="33.969" x="10" y="287.633" fill="#00FF7F" filter="url(#f1s8sihw87udhy)" style="stroke:#a80036;stroke-width:1.5"/><text x="20" y="308.772" fill="#000" font-family="sans-serif" font-size="12" lengthAdjust="spacingAndGlyphs" textLength="43">(3) Set</text><text x="67" y="308.772" fill="#000" font-family="sans-serif" font-size="12" font-weight="bold" lengthAdjust="spacingAndGlyphs" textLength="142">Progressing = False</text><polygon fill="#FF4500" points="265.5 287.633 415.5 287.633 405.5 335.57 255.5 335.57" filter="url(#f1s8sihw87udhy)" style="stroke:#a80036;stroke-width:1.5"/><text x="265.5" y="308.772" fill="#000" font-family="sans-serif" font-size="12" lengthAdjust="spacingAndGlyphs" textLength="83">&lt;&lt;implicit&gt;&gt;</text><text x="265.5" y="322.74" fill="#000" font-family="sans-serif" font-size="12" font-weight="bold" lengthAdjust="spacingAndGlyphs" textLength="136">Progressing = True</text><polygon fill="#FEFECE" points="225 341.57 237 353.57 225 365.57 213 353.57 225 341.57" filter="url(#f1s8sihw87udhy)" style="stroke:#a80036;stroke-width:1.5"/><polygon fill="#FEFECE" points="136.5 400.57 313.5 400.57 325.5 412.57 313.5 424.57 136.5 424.57 124.5 412.57 136.5 400.57" filter="url(#f1s8sihw87udhy)" style="stroke:#a80036;stroke-width:1.5"/><text x="136.5" y="416.378" fill="#000" font-family="sans-serif" font-size="11" lengthAdjust="spacingAndGlyphs" textLength="177">(4) [Upgradable = False] Exists</text><text x="110.5" y="409.976" fill="#000" font-family="sans-serif" font-size="11" lengthAdjust="spacingAndGlyphs" textLength="14">no</text><text x="325.5" y="409.976" fill="#000" font-family="sans-serif" font-size="11" lengthAdjust="spacingAndGlyphs" textLength="20">yes</text><rect width="206" height="33.969" x="11.5" y="434.57" fill="#FF4500" filter="url(#f1s8sihw87udhy)" style="stroke:#a80036;stroke-width:1.5"/><text x="21.5" y="455.709" fill="#000" font-family="sans-serif" font-size="12" lengthAdjust="spacingAndGlyphs" textLength="43">(5) Set</text><text x="68.5" y="455.709" fill="#000" font-family="sans-serif" font-size="12" font-weight="bold" lengthAdjust="spacingAndGlyphs" textLength="139">Upgradable = False</text><polygon fill="#FF4500" points="264 434.57 417 434.57 407 482.508 254 482.508" filter="url(#f1s8sihw87udhy)" style="stroke:#a80036;stroke-width:1.5"/><text x="264" y="455.709" fill="#000" font-family="sans-serif" font-size="12" lengthAdjust="spacingAndGlyphs" textLength="83">&lt;&lt;implicit&gt;&gt;</text><text x="264" y="469.678" fill="#000" font-family="sans-serif" font-size="12" font-weight="bold" lengthAdjust="spacingAndGlyphs" textLength="139">Upgradable = False</text><polygon fill="#FEFECE" points="225 488.508 237 500.508 225 512.508 213 500.508 225 488.508" filter="url(#f1s8sihw87udhy)" style="stroke:#a80036;stroke-width:1.5"/><polygon fill="#FEFECE" points="144 547.508 306 547.508 318 559.508 306 571.508 144 571.508 132 559.508 144 547.508" filter="url(#f1s8sihw87udhy)" style="stroke:#a80036;stroke-width:1.5"/><text x="144" y="563.316" fill="#000" font-family="sans-serif" font-size="11" lengthAdjust="spacingAndGlyphs" textLength="162">(6) [Available = False] Exists</text><text x="118" y="556.914" fill="#000" font-family="sans-serif" font-size="11" lengthAdjust="spacingAndGlyphs" textLength="14">no</text><text x="318" y="556.914" fill="#000" font-family="sans-serif" font-size="11" lengthAdjust="spacingAndGlyphs" textLength="20">yes</text><rect width="187" height="33.969" x="28.5" y="581.508" fill="#FF4500" filter="url(#f1s8sihw87udhy)" style="stroke:#a80036;stroke-width:1.5"/><text x="38.5" y="602.646" fill="#000" font-family="sans-serif" font-size="12" lengthAdjust="spacingAndGlyphs" textLength="43">(7) Set</text><text x="85.5" y="602.646" fill="#000" font-family="sans-serif" font-size="12" font-weight="bold" lengthAdjust="spacingAndGlyphs" textLength="120">Available = False</text><polygon fill="#FF4500" points="266 581.508 400 581.508 390 629.445 256 629.445" filter="url(#f1s8sihw87udhy)" style="stroke:#a80036;stroke-width:1.5"/><text x="266" y="602.646" fill="#000" font-family="sans-serif" font-size="12" lengthAdjust="spacingAndGlyphs" textLength="83">&lt;&lt;implicit&gt;&gt;</text><text x="266" y="616.615" fill="#000" font-family="sans-serif" font-size="12" font-weight="bold" lengthAdjust="spacingAndGlyphs" textLength="120">Available = False</text><polygon fill="#FEFECE" points="225 635.445 237 647.445 225 659.445 213 647.445 225 635.445" filter="url(#f1s8sihw87udhy)" style="stroke:#a80036;stroke-width:1.5"/><rect width="193" height="33.969" x="789.875" y="158.922" fill="#00FF7F" filter="url(#f1s8sihw87udhy)" style="stroke:#a80036;stroke-width:1.5"/><text x="799.875" y="180.06" fill="#000" font-family="sans-serif" font-size="12" lengthAdjust="spacingAndGlyphs" textLength="43">(8) Set</text><text x="846.875" y="180.06" fill="#000" font-family="sans-serif" font-size="12" font-weight="bold" lengthAdjust="spacingAndGlyphs" textLength="126">Degraded = False</text><polygon fill="#FEFECE" points="797.875 226.859 974.875 226.859 986.875 238.859 974.875 250.859 797.875 250.859 785.875 238.859 797.875 226.859" filter="url(#f1s8sihw87udhy)" style="stroke:#a80036;stroke-width:1.5"/><text x="797.875" y="242.667" fill="#000" font-family="sans-serif" font-size="11" lengthAdjust="spacingAndGlyphs" textLength="177">(9) [Progressing = True] Exists</text><text x="765.875" y="236.265" fill="#000" font-family="sans-serif" font-size="11" lengthAdjust="spacingAndGlyphs" textLength="20">yes</text><text x="986.875" y="236.265" fill="#000" font-family="sans-serif" font-size="11" lengthAdjust="spacingAndGlyphs" textLength="14">no</text><polygon fill="#FF4500" points="589.625 260.859 739.625 260.859 729.625 308.797 579.625 308.797" filter="url(#f1s8sihw87udhy)" style="stroke:#a80036;stroke-width:1.5"/><text x="589.625" y="281.998" fill="#000" font-family="sans-serif" font-size="12" lengthAdjust="spacingAndGlyphs" textLength="83">&lt;&lt;implicit&gt;&gt;</text><text x="589.625" y="295.967" fill="#000" font-family="sans-serif" font-size="12" font-weight="bold" lengthAdjust="spacingAndGlyphs" textLength="136">Progressing = True</text><polygon fill="#FEFECE" points="567.625 343.797 751.625 343.797 763.625 355.797 751.625 367.797 567.625 367.797 555.625 355.797 567.625 343.797" filter="url(#f1s8sihw87udhy)" style="stroke:#a80036;stroke-width:1.5"/><text x="567.625" y="359.605" fill="#000" font-family="sans-serif" font-size="11" lengthAdjust="spacingAndGlyphs" textLength="184">(10) [Upgradable = False] Exists</text><text x="541.625" y="353.203" fill="#000" font-family="sans-serif" font-size="11" lengthAdjust="spacingAndGlyphs" textLength="14">no</text><text x="763.625" y="353.203" fill="#000" font-family="sans-serif" font-size="11" lengthAdjust="spacingAndGlyphs" textLength="20">yes</text><rect width="214" height="33.969" x="438.625" y="377.797" fill="#FF4500" filter="url(#f1s8sihw87udhy)" style="stroke:#a80036;stroke-width:1.5"/><text x="448.625" y="398.935" fill="#000" font-family="sans-serif" font-size="12" lengthAdjust="spacingAndGlyphs" textLength="51">(11) Set</text><text x="503.625" y="398.935" fill="#000" font-family="sans-serif" font-size="12" font-weight="bold" lengthAdjust="spacingAndGlyphs" textLength="139">Upgradable = False</text><polygon fill="#FF4500" points="702.125 377.797 855.125 377.797 845.125 425.734 692.125 425.734" filter="url(#f1s8sihw87udhy)" style="stroke:#a80036;stroke-width:1.5"/><text x="702.125" y="398.935" fill="#000" font-family="sans-serif" font-size="12" lengthAdjust="spacingAndGlyphs" textLength="83">&lt;&lt;implicit&gt;&gt;</text><text x="702.125" y="412.904" fill="#000" font-family="sans-serif" font-size="12" font-weight="bold" lengthAdjust="spacingAndGlyphs" textLength="139">Upgradable = False</text><polygon fill="#FEFECE" points="659.625 431.734 671.625 443.734 659.625 455.734 647.625 443.734 659.625 431.734" filter="url(#f1s8sihw87udhy)" style="stroke:#a80036;stroke-width:1.5"/><polygon fill="#FEFECE" points="575.125 490.734 744.125 490.734 756.125 502.734 744.125 514.734 575.125 514.734 563.125 502.734 575.125 490.734" filter="url(#f1s8sihw87udhy)" style="stroke:#a80036;stroke-width:1.5"/><text x="575.125" y="506.543" fill="#000" font-family="sans-serif" font-size="11" lengthAdjust="spacingAndGlyphs" textLength="169">(12) [Available = False] Exists</text><text x="549.125" y="500.14" fill="#000" font-family="sans-serif" font-size="11" lengthAdjust="spacingAndGlyphs" textLength="14">no</text><rect width="189" height="33.969" x="458.625" y="524.734" fill="#00FF7F" filter="url(#f1s8sihw87udhy)" style="stroke:#a80036;stroke-width:1.5"/><text x="468.625" y="545.873" fill="#000" font-family="sans-serif" font-size="12" lengthAdjust="spacingAndGlyphs" textLength="51">(13) Set</text><text x="523.625" y="545.873" fill="#000" font-family="sans-serif" font-size="12" font-weight="bold" lengthAdjust="spacingAndGlyphs" textLength="114">Available = True</text><polygon fill="#FF4500" points="704.125 524.734 838.125 524.734 828.125 572.672 694.125 572.672" filter="url(#f1s8sihw87udhy)" style="stroke:#a80036;stroke-width:1.5"/><text x="704.125" y="545.873" fill="#000" font-family="sans-serif" font-size="12" lengthAdjust="spacingAndGlyphs" textLength="83">&lt;&lt;implicit&gt;&gt;</text><text x="704.125" y="559.842" fill="#000" font-family="sans-serif" font-size="12" font-weight="bold" lengthAdjust="spacingAndGlyphs" textLength="120">Available = False</text><polygon fill="#FEFECE" points="659.625 578.672 671.625 590.672 659.625 602.672 647.625 590.672 659.625 578.672" filter="url(#f1s8sihw87udhy)" style="stroke:#a80036;stroke-width:1.5"/><text x="671.625" y="588.078" fill="#000" font-family="sans-serif" font-size="11" lengthAdjust="spacingAndGlyphs" textLength="20">yes</text><rect width="217" height="33.969" x="1004.625" y="260.859" fill="#00FF7F" filter="url(#f1s8sihw87udhy)" style="stroke:#a80036;stroke-width:1.5"/><text x="1014.625" y="281.998" fill="#000" font-family="sans-serif" font-size="12" lengthAdjust="spacingAndGlyphs" textLength="51">(14) Set</text><text x="1069.625" y="281.998" fill="#000" font-family="sans-serif" font-size="12" font-weight="bold" lengthAdjust="spacingAndGlyphs" textLength="142">Progressing = False</text><polygon fill="#FEFECE" points="1021.125 329.828 1205.125 329.828 1217.125 341.828 1205.125 353.828 1021.125 353.828 1009.125 341.828 1021.125 329.828" filter="url(#f1s8sihw87udhy)" style="stroke:#a80036;stroke-width:1.5"/><text x="1021.125" y="345.636" fill="#000" font-family="sans-serif" font-size="11" lengthAdjust="spacingAndGlyphs" textLength="184">(15) [Upgradable = False] Exists</text><text x="995.125" y="339.234" fill="#000" font-family="sans-serif" font-size="11" lengthAdjust="spacingAndGlyphs" textLength="14">no</text><rect width="208" height="33.969" x="895.125" y="363.828" fill="#00FF7F" filter="url(#f1s8sihw87udhy)" style="stroke:#a80036;stroke-width:1.5"/><text x="905.125" y="384.967" fill="#000" font-family="sans-serif" font-size="12" lengthAdjust="spacingAndGlyphs" textLength="51">(16) Set</text><text x="960.125" y="384.967" fill="#000" font-family="sans-serif" font-size="12" font-weight="bold" lengthAdjust="spacingAndGlyphs" textLength="133">Upgradable = True</text><polygon fill="#FF4500" points="1155.625 363.828 1308.625 363.828 1298.625 411.766 1145.625 411.766" filter="url(#f1s8sihw87udhy)" style="stroke:#a80036;stroke-width:1.5"/><text x="1155.625" y="384.967" fill="#000" font-family="sans-serif" font-size="12" lengthAdjust="spacingAndGlyphs" textLength="83">&lt;&lt;implicit&gt;&gt;</text><text x="1155.625" y="398.935" fill="#000" font-family="sans-serif" font-size="12" font-weight="bold" lengthAdjust="spacingAndGlyphs" textLength="139">Upgradable = False</text><polygon fill="#FEFECE" points="1113.125 417.766 1125.125 429.766 1113.125 441.766 1101.125 429.766 1113.125 417.766" filter="url(#f1s8sihw87udhy)" style="stroke:#a80036;stroke-width:1.5"/><text x="1125.125" y="427.171" fill="#000" font-family="sans-serif" font-size="11" lengthAdjust="spacingAndGlyphs" textLength="20">yes</text><polygon fill="#FEFECE" points="1028.625 476.766 1197.625 476.766 1209.625 488.766 1197.625 500.766 1028.625 500.766 1016.625 488.766 1028.625 476.766" filter="url(#f1s8sihw87udhy)" style="stroke:#a80036;stroke-width:1.5"/><text x="1028.625" y="492.574" fill="#000" font-family="sans-serif" font-size="11" lengthAdjust="spacingAndGlyphs" textLength="169">(17) [Available = False] Exists</text><text x="1002.625" y="486.171" fill="#000" font-family="sans-serif" font-size="11" lengthAdjust="spacingAndGlyphs" textLength="14">no</text><text x="1209.625" y="486.171" fill="#000" font-family="sans-serif" font-size="11" lengthAdjust="spacingAndGlyphs" textLength="20">yes</text><rect width="189" height="33.969" x="912.125" y="510.766" fill="#00FF7F" filter="url(#f1s8sihw87udhy)" style="stroke:#a80036;stroke-width:1.5"/><text x="922.125" y="531.904" fill="#000" font-family="sans-serif" font-size="12" lengthAdjust="spacingAndGlyphs" textLength="51">(18) Set</text><text x="977.125" y="531.904" fill="#000" font-family="sans-serif" font-size="12" font-weight="bold" lengthAdjust="spacingAndGlyphs" textLength="114">Available = True</text><polygon fill="#FF4500" points="1157.625 510.766 1291.625 510.766 1281.625 558.703 1147.625 558.703" filter="url(#f1s8sihw87udhy)" style="stroke:#a80036;stroke-width:1.5"/><text x="1157.625" y="531.904" fill="#000" font-family="sans-serif" font-size="12" lengthAdjust="spacingAndGlyphs" textLength="83">&lt;&lt;implicit&gt;&gt;</text><text x="1157.625" y="545.873" fill="#000" font-family="sans-serif" font-size="12" font-weight="bold" lengthAdjust="spacingAndGlyphs" textLength="120">Available = False</text><polygon fill="#FEFECE" points="1113.125 564.703 1125.125 576.703 1113.125 588.703 1101.125 576.703 1113.125 564.703" filter="url(#f1s8sihw87udhy)" style="stroke:#a80036;stroke-width:1.5"/><polygon fill="#FEFECE" points="886.375 608.672 898.375 620.672 886.375 632.672 874.375 620.672 886.375 608.672" filter="url(#f1s8sihw87udhy)" style="stroke:#a80036;stroke-width:1.5"/><polygon fill="#FEFECE" points="541.5 665.445 553.5 677.445 541.5 689.445 529.5 677.445 541.5 665.445" filter="url(#f1s8sihw87udhy)" style="stroke:#a80036;stroke-width:1.5"/><ellipse cx="541.5" cy="719.445" fill="#FFF" filter="url(#f1s8sihw87udhy)" rx="10" ry="10" style="stroke:#000;stroke-width:1.5"/><line style="stroke:#000;stroke-width:2.5" x1="535.313" x2="547.687" y1="713.258" y2="725.633"/><line style="stroke:#000;stroke-width:2.5" x1="547.687" x2="535.313" y1="713.258" y2="725.633"/><line style="stroke:#a80036;stroke-width:1.5" x1="541.5" x2="541.5" y1="50.953" y2="70.953"/><polygon fill="#A80036" points="537.5 60.953 541.5 70.953 545.5 60.953 541.5 64.953" style="stroke:#a80036;stroke-width:1"/><line style="stroke:#00ff7f;stroke-width:1.5" x1="124.5" x2="114.5" y1="265.633" y2="265.633"/><line style="stroke:#00ff7f;stroke-width:1.5" x1="114.5" x2="114.5" y1="265.633" y2="287.633"/><polygon fill="#00FF7F" points="110.5 277.633 114.5 287.633 118.5 277.633 114.5 281.633" style="stroke:#00ff7f;stroke-width:1"/><line style="stroke:#ff4500;stroke-width:1.5" x1="325.5" x2="335.5" y1="265.633" y2="265.633"/><line style="stroke:#ff4500;stroke-width:1.5" x1="335.5" x2="335.5" y1="265.633" y2="287.633"/><polygon fill="#FF4500" points="331.5 277.633 335.5 287.633 339.5 277.633 335.5 281.633" style="stroke:#ff4500;stroke-width:1"/><line style="stroke:#a80036;stroke-width:1.5" x1="114.5" x2="114.5" y1="321.602" y2="353.57"/><line style="stroke:#a80036;stroke-width:1.5" x1="114.5" x2="213" y1="353.57" y2="353.57"/><polygon fill="#A80036" points="203 349.57 213 353.57 203 357.57 207 353.57" style="stroke:#a80036;stroke-width:1"/><line style="stroke:#a80036;stroke-width:1.5" x1="335.5" x2="335.5" y1="335.57" y2="353.57"/><line style="stroke:#a80036;stroke-width:1.5" x1="335.5" x2="237" y1="353.57" y2="353.57"/><polygon fill="#A80036" points="247 349.57 237 353.57 247 357.57 243 353.57" style="stroke:#a80036;stroke-width:1"/><line style="stroke:#ff4500;stroke-width:1.5" x1="225" x2="225" y1="206.859" y2="253.633"/><polygon fill="#FF4500" points="221 243.633 225 253.633 229 243.633 225 247.633" style="stroke:#ff4500;stroke-width:1"/><text x="229" y="233.539" fill="#000" font-family="sans-serif" font-size="11" lengthAdjust="spacingAndGlyphs" textLength="20">yes</text><line style="stroke:#00ff7f;stroke-width:1.5" x1="124.5" x2="114.5" y1="412.57" y2="412.57"/><line style="stroke:#00ff7f;stroke-width:1.5" x1="114.5" x2="114.5" y1="412.57" y2="434.57"/><polygon fill="#00FF7F" points="110.5 424.57 114.5 434.57 118.5 424.57 114.5 428.57" style="stroke:#00ff7f;stroke-width:1"/><line style="stroke:#ff4500;stroke-width:1.5" x1="325.5" x2="335.5" y1="412.57" y2="412.57"/><line style="stroke:#ff4500;stroke-width:1.5" x1="335.5" x2="335.5" y1="412.57" y2="434.57"/><polygon fill="#FF4500" points="331.5 424.57 335.5 434.57 339.5 424.57 335.5 428.57" style="stroke:#ff4500;stroke-width:1"/><line style="stroke:#a80036;stroke-width:1.5" x1="114.5" x2="114.5" y1="468.539" y2="500.508"/><line style="stroke:#a80036;stroke-width:1.5" x1="114.5" x2="213" y1="500.508" y2="500.508"/><polygon fill="#A80036" points="203 496.508 213 500.508 203 504.508 207 500.508" style="stroke:#a80036;stroke-width:1"/><line style="stroke:#a80036;stroke-width:1.5" x1="335.5" x2="335.5" y1="482.508" y2="500.508"/><line style="stroke:#a80036;stroke-width:1.5" x1="335.5" x2="237" y1="500.508" y2="500.508"/><polygon fill="#A80036" points="247 496.508 237 500.508 247 504.508 243 500.508" style="stroke:#a80036;stroke-width:1"/><line style="stroke:#a80036;stroke-width:1.5" x1="225" x2="225" y1="365.57" y2="400.57"/><polygon fill="#A80036" points="221 390.57 225 400.57 229 390.57 225 394.57" style="stroke:#a80036;stroke-width:1"/><line style="stroke:#00ff7f;stroke-width:1.5" x1="132" x2="122" y1="559.508" y2="559.508"/><line style="stroke:#00ff7f;stroke-width:1.5" x1="122" x2="122" y1="559.508" y2="581.508"/><polygon fill="#00FF7F" points="118 571.508 122 581.508 126 571.508 122 575.508" style="stroke:#00ff7f;stroke-width:1"/><line style="stroke:#ff4500;stroke-width:1.5" x1="318" x2="328" y1="559.508" y2="559.508"/><line style="stroke:#ff4500;stroke-width:1.5" x1="328" x2="328" y1="559.508" y2="581.508"/><polygon fill="#FF4500" points="324 571.508 328 581.508 332 571.508 328 575.508" style="stroke:#ff4500;stroke-width:1"/><line style="stroke:#a80036;stroke-width:1.5" x1="122" x2="122" y1="615.477" y2="647.445"/><line style="stroke:#a80036;stroke-width:1.5" x1="122" x2="213" y1="647.445" y2="647.445"/><polygon fill="#A80036" points="203 643.445 213 647.445 203 651.445 207 647.445" style="stroke:#a80036;stroke-width:1"/><line style="stroke:#a80036;stroke-width:1.5" x1="328" x2="328" y1="629.445" y2="647.445"/><line style="stroke:#a80036;stroke-width:1.5" x1="328" x2="237" y1="647.445" y2="647.445"/><polygon fill="#A80036" points="247 643.445 237 647.445 247 651.445 243 647.445" style="stroke:#a80036;stroke-width:1"/><line style="stroke:#a80036;stroke-width:1.5" x1="225" x2="225" y1="512.508" y2="547.508"/><polygon fill="#A80036" points="221 537.508 225 547.508 229 537.508 225 541.508" style="stroke:#a80036;stroke-width:1"/><line style="stroke:#00ff7f;stroke-width:1.5" x1="555.625" x2="545.625" y1="355.797" y2="355.797"/><line style="stroke:#00ff7f;stroke-width:1.5" x1="545.625" x2="545.625" y1="355.797" y2="377.797"/><polygon fill="#00FF7F" points="541.625 367.797 545.625 377.797 549.625 367.797 545.625 371.797" style="stroke:#00ff7f;stroke-width:1"/><line style="stroke:#ff4500;stroke-width:1.5" x1="763.625" x2="773.625" y1="355.797" y2="355.797"/><line style="stroke:#ff4500;stroke-width:1.5" x1="773.625" x2="773.625" y1="355.797" y2="377.797"/><polygon fill="#FF4500" points="769.625 367.797 773.625 377.797 777.625 367.797 773.625 371.797" style="stroke:#ff4500;stroke-width:1"/><line style="stroke:#a80036;stroke-width:1.5" x1="545.625" x2="545.625" y1="411.766" y2="443.734"/><line style="stroke:#a80036;stroke-width:1.5" x1="545.625" x2="647.625" y1="443.734" y2="443.734"/><polygon fill="#A80036" points="637.625 439.734 647.625 443.734 637.625 447.734 641.625 443.734" style="stroke:#a80036;stroke-width:1"/><line style="stroke:#a80036;stroke-width:1.5" x1="773.625" x2="773.625" y1="425.734" y2="443.734"/><line style="stroke:#a80036;stroke-width:1.5" x1="773.625" x2="671.625" y1="443.734" y2="443.734"/><polygon fill="#A80036" points="681.625 439.734 671.625 443.734 681.625 447.734 677.625 443.734" style="stroke:#a80036;stroke-width:1"/><line style="stroke:#a80036;stroke-width:1.5" x1="659.625" x2="659.625" y1="308.797" y2="343.797"/><polygon fill="#A80036" points="655.625 333.797 659.625 343.797 663.625 333.797 659.625 337.797" style="stroke:#a80036;stroke-width:1"/><line style="stroke:#00ff7f;stroke-width:1.5" x1="563.125" x2="553.125" y1="502.734" y2="502.734"/><line style="stroke:#00ff7f;stroke-width:1.5" x1="553.125" x2="553.125" y1="502.734" y2="524.734"/><polygon fill="#00FF7F" points="549.125 514.734 553.125 524.734 557.125 514.734 553.125 518.734" style="stroke:#00ff7f;stroke-width:1"/><line style="stroke:#a80036;stroke-width:1.5" x1="756.125" x2="766.125" y1="502.734" y2="502.734"/><line style="stroke:#a80036;stroke-width:1.5" x1="766.125" x2="766.125" y1="502.734" y2="524.734"/><polygon fill="#A80036" points="762.125 514.734 766.125 524.734 770.125 514.734 766.125 518.734" style="stroke:#a80036;stroke-width:1"/><line style="stroke:#a80036;stroke-width:1.5" x1="553.125" x2="553.125" y1="558.703" y2="590.672"/><line style="stroke:#a80036;stroke-width:1.5" x1="553.125" x2="647.625" y1="590.672" y2="590.672"/><polygon fill="#A80036" points="637.625 586.672 647.625 590.672 637.625 594.672 641.625 590.672" style="stroke:#a80036;stroke-width:1"/><line style="stroke:#ff4500;stroke-width:1.5" x1="766.125" x2="766.125" y1="572.672" y2="590.672"/><line style="stroke:#ff4500;stroke-width:1.5" x1="766.125" x2="671.625" y1="590.672" y2="590.672"/><polygon fill="#FF4500" points="681.625 586.672 671.625 590.672 681.625 594.672 677.625 590.672" style="stroke:#ff4500;stroke-width:1"/><line style="stroke:#a80036;stroke-width:1.5" x1="659.625" x2="659.625" y1="455.734" y2="490.734"/><polygon fill="#A80036" points="655.625 480.734 659.625 490.734 663.625 480.734 659.625 484.734" style="stroke:#a80036;stroke-width:1"/><line style="stroke:#00ff7f;stroke-width:1.5" x1="1009.125" x2="999.125" y1="341.828" y2="341.828"/><line style="stroke:#00ff7f;stroke-width:1.5" x1="999.125" x2="999.125" y1="341.828" y2="363.828"/><polygon fill="#00FF7F" points="995.125 353.828 999.125 363.828 1003.125 353.828 999.125 357.828" style="stroke:#00ff7f;stroke-width:1"/><line style="stroke:#a80036;stroke-width:1.5" x1="1217.125" x2="1227.125" y1="341.828" y2="341.828"/><line style="stroke:#a80036;stroke-width:1.5" x1="1227.125" x2="1227.125" y1="341.828" y2="363.828"/><polygon fill="#A80036" points="1223.125 353.828 1227.125 363.828 1231.125 353.828 1227.125 357.828" style="stroke:#a80036;stroke-width:1"/><line style="stroke:#a80036;stroke-width:1.5" x1="999.125" x2="999.125" y1="397.797" y2="429.766"/><line style="stroke:#a80036;stroke-width:1.5" x1="999.125" x2="1101.125" y1="429.766" y2="429.766"/><polygon fill="#A80036" points="1091.125 425.766 1101.125 429.766 1091.125 433.766 1095.125 429.766" style="stroke:#a80036;stroke-width:1"/><line style="stroke:#ff4500;stroke-width:1.5" x1="1227.125" x2="1227.125" y1="411.766" y2="429.766"/><line style="stroke:#ff4500;stroke-width:1.5" x1="1227.125" x2="1125.125" y1="429.766" y2="429.766"/><polygon fill="#FF4500" points="1135.125 425.766 1125.125 429.766 1135.125 433.766 1131.125 429.766" style="stroke:#ff4500;stroke-width:1"/><line style="stroke:#a80036;stroke-width:1.5" x1="1113.125" x2="1113.125" y1="294.828" y2="329.828"/><polygon fill="#A80036" points="1109.125 319.828 1113.125 329.828 1117.125 319.828 1113.125 323.828" style="stroke:#a80036;stroke-width:1"/><line style="stroke:#00ff7f;stroke-width:1.5" x1="1016.625" x2="1006.625" y1="488.766" y2="488.766"/><line style="stroke:#00ff7f;stroke-width:1.5" x1="1006.625" x2="1006.625" y1="488.766" y2="510.766"/><polygon fill="#00FF7F" points="1002.625 500.766 1006.625 510.766 1010.625 500.766 1006.625 504.766" style="stroke:#00ff7f;stroke-width:1"/><line style="stroke:#ff4500;stroke-width:1.5" x1="1209.625" x2="1219.625" y1="488.766" y2="488.766"/><line style="stroke:#ff4500;stroke-width:1.5" x1="1219.625" x2="1219.625" y1="488.766" y2="510.766"/><polygon fill="#FF4500" points="1215.625 500.766 1219.625 510.766 1223.625 500.766 1219.625 504.766" style="stroke:#ff4500;stroke-width:1"/><line style="stroke:#a80036;stroke-width:1.5" x1="1006.625" x2="1006.625" y1="544.734" y2="576.703"/><line style="stroke:#a80036;stroke-width:1.5" x1="1006.625" x2="1101.125" y1="576.703" y2="576.703"/><polygon fill="#A80036" points="1091.125 572.703 1101.125 576.703 1091.125 580.703 1095.125 576.703" style="stroke:#a80036;stroke-width:1"/><line style="stroke:#a80036;stroke-width:1.5" x1="1219.625" x2="1219.625" y1="558.703" y2="576.703"/><line style="stroke:#a80036;stroke-width:1.5" x1="1219.625" x2="1125.125" y1="576.703" y2="576.703"/><polygon fill="#A80036" points="1135.125 572.703 1125.125 576.703 1135.125 580.703 1131.125 576.703" style="stroke:#a80036;stroke-width:1"/><line style="stroke:#a80036;stroke-width:1.5" x1="1113.125" x2="1113.125" y1="441.766" y2="476.766"/><polygon fill="#A80036" points="1109.125 466.766 1113.125 476.766 1117.125 466.766 1113.125 470.766" style="stroke:#a80036;stroke-width:1"/><line style="stroke:#ff4500;stroke-width:1.5" x1="785.875" x2="659.625" y1="238.859" y2="238.859"/><line style="stroke:#ff4500;stroke-width:1.5" x1="659.625" x2="659.625" y1="238.859" y2="260.859"/><polygon fill="#FF4500" points="655.625 250.859 659.625 260.859 663.625 250.859 659.625 254.859" style="stroke:#ff4500;stroke-width:1"/><line style="stroke:#00ff7f;stroke-width:1.5" x1="986.875" x2="1113.125" y1="238.859" y2="238.859"/><line style="stroke:#00ff7f;stroke-width:1.5" x1="1113.125" x2="1113.125" y1="238.859" y2="260.859"/><polygon fill="#00FF7F" points="1109.125 250.859 1113.125 260.859 1117.125 250.859 1113.125 254.859" style="stroke:#00ff7f;stroke-width:1"/><line style="stroke:#a80036;stroke-width:1.5" x1="659.625" x2="659.625" y1="602.672" y2="620.672"/><line style="stroke:#a80036;stroke-width:1.5" x1="659.625" x2="874.375" y1="620.672" y2="620.672"/><polygon fill="#A80036" points="864.375 616.672 874.375 620.672 864.375 624.672 868.375 620.672" style="stroke:#a80036;stroke-width:1"/><line style="stroke:#a80036;stroke-width:1.5" x1="1113.125" x2="1113.125" y1="588.703" y2="620.672"/><line style="stroke:#a80036;stroke-width:1.5" x1="1113.125" x2="898.375" y1="620.672" y2="620.672"/><polygon fill="#A80036" points="908.375 616.672 898.375 620.672 908.375 624.672 904.375 620.672" style="stroke:#a80036;stroke-width:1"/><line style="stroke:#a80036;stroke-width:1.5" x1="886.375" x2="886.375" y1="192.891" y2="226.859"/><polygon fill="#A80036" points="882.375 216.859 886.375 226.859 890.375 216.859 886.375 220.859" style="stroke:#a80036;stroke-width:1"/><line style="stroke:#a80036;stroke-width:1.5" x1="448" x2="225" y1="136.922" y2="136.922"/><line style="stroke:#a80036;stroke-width:1.5" x1="225" x2="225" y1="136.922" y2="158.922"/><polygon fill="#A80036" points="221 148.922 225 158.922 229 148.922 225 152.922" style="stroke:#a80036;stroke-width:1"/><line style="stroke:#00ff7f;stroke-width:1.5" x1="635" x2="886.375" y1="136.922" y2="136.922"/><line style="stroke:#00ff7f;stroke-width:1.5" x1="886.375" x2="886.375" y1="136.922" y2="158.922"/><polygon fill="#00FF7F" points="882.375 148.922 886.375 158.922 890.375 148.922 886.375 152.922" style="stroke:#00ff7f;stroke-width:1"/><line style="stroke:#a80036;stroke-width:1.5" x1="225" x2="225" y1="659.445" y2="677.445"/><line style="stroke:#a80036;stroke-width:1.5" x1="225" x2="529.5" y1="677.445" y2="677.445"/><polygon fill="#A80036" points="519.5 673.445 529.5 677.445 519.5 681.445 523.5 677.445" style="stroke:#a80036;stroke-width:1"/><line style="stroke:#a80036;stroke-width:1.5" x1="886.375" x2="886.375" y1="632.672" y2="677.445"/><line style="stroke:#a80036;stroke-width:1.5" x1="886.375" x2="553.5" y1="677.445" y2="677.445"/><polygon fill="#A80036" points="563.5 673.445 553.5 677.445 563.5 681.445 559.5 677.445" style="stroke:#a80036;stroke-width:1"/><line style="stroke:#a80036;stroke-width:1.5" x1="541.5" x2="541.5" y1="104.922" y2="124.922"/><polygon fill="#A80036" points="537.5 114.922 541.5 124.922 545.5 114.922 541.5 118.922" style="stroke:#a80036;stroke-width:1"/><line style="stroke:#a80036;stroke-width:1.5" x1="541.5" x2="541.5" y1="689.445" y2="709.445"/><polygon fill="#A80036" points="537.5 699.445 541.5 709.445 545.5 699.445 541.5 703.445" style="stroke:#a80036;stroke-width:1"/></g></svg>