<svg xmlns="http://www.w3.org/2000/svg" xmlns:xlink="http://www.w3.org/1999/xlink" width="2573pt" height="1373pt" viewBox="14.4 14.4 2558.4 1358.4"><g id="graph0" class="graph" transform="scale(1 1) rotate(0) translate(18.4 1354.4)"><title>managed-by</title><polygon fill="#fff" stroke="transparent" points="-4 4 -4 -1340 2540 -1340 2540 4 -4 4"/><g id="node1" class="node"><title>HyperConverged/kubevirt-hyperconverged</title><path fill="none" stroke="#000" d="M546,-467C546,-467 12,-467 12,-467 6,-467 0,-461 0,-455 0,-455 0,-407 0,-407 0,-401 6,-395 12,-395 12,-395 546,-395 546,-395 552,-395 558,-401 558,-407 558,-407 558,-455 558,-455 558,-461 552,-467 546,-467"/><text x="279" y="-424.8" fill="#000" font-family="Courier,monospace" font-size="24" font-weight="bold" text-anchor="middle">HyperConverged/kubevirt-hyperconverged</text></g><g id="node2" class="node"><title>KubeVirt/kubevirt-kubevirt-hyperconverged</title><path fill="none" stroke="#000" d="M2135.5,-1336C2135.5,-1336 1558.5,-1336 1558.5,-1336 1552.5,-1336 1546.5,-1330 1546.5,-1324 1546.5,-1324 1546.5,-1276 1546.5,-1276 1546.5,-1270 1552.5,-1264 1558.5,-1264 1558.5,-1264 2135.5,-1264 2135.5,-1264 2141.5,-1264 2147.5,-1270 2147.5,-1276 2147.5,-1276 2147.5,-1324 2147.5,-1324 2147.5,-1330 2141.5,-1336 2135.5,-1336"/><text x="1847" y="-1293.8" fill="#000" font-family="Courier,monospace" font-size="24" font-weight="bold" text-anchor="middle">KubeVirt/kubevirt-kubevirt-hyperconverged</text></g><g id="node3" class="node"><title>deployment/hco-operator</title><path fill="none" stroke="#000" d="M1198,-1138C1198,-1138 878,-1138 878,-1138 872,-1138 866,-1132 866,-1126 866,-1126 866,-1078 866,-1078 866,-1072 872,-1066 878,-1066 878,-1066 1198,-1066 1198,-1066 1204,-1066 1210,-1072 1210,-1078 1210,-1078 1210,-1126 1210,-1126 1210,-1132 1204,-1138 1198,-1138"/><text x="1038" y="-1095.8" fill="#000" font-family="Courier,monospace" font-size="24" font-weight="bold" text-anchor="middle">deployment/hco-operator</text></g><g id="edge1" class="edge"><title>deployment/hco-operator-&gt;KubeVirt/kubevirt-kubevirt-hyperconverged</title><path fill="none" stroke="#000" d="M1129.4013,-1138.0832C1224.8727,-1174.3427 1379.7123,-1229.15 1518,-1260 1520.7509,-1260.6137 1523.5169,-1261.2185 1526.2966,-1261.8146"/><polygon fill="#000" stroke="#000" points="1546.254 -1265.905 1524.855 -1270.706 1536.458 -1263.897 1526.662 -1261.889 1526.662 -1261.889 1526.662 -1261.889 1536.458 -1263.897 1528.469 -1253.073 1546.254 -1265.905 1546.254 -1265.905"/></g><g id="node4" class="node"><title>SSP/ssp-kubevirt-hyperconverged</title><path fill="none" stroke="#000" d="M2064,-1257C2064,-1257 1630,-1257 1630,-1257 1624,-1257 1618,-1251 1618,-1245 1618,-1245 1618,-1197 1618,-1197 1618,-1191 1624,-1185 1630,-1185 1630,-1185 2064,-1185 2064,-1185 2070,-1185 2076,-1191 2076,-1197 2076,-1197 2076,-1245 2076,-1245 2076,-1251 2070,-1257 2064,-1257"/><text x="1847" y="-1214.8" fill="#000" font-family="Courier,monospace" font-size="24" font-weight="bold" text-anchor="middle">SSP/ssp-kubevirt-hyperconverged</text></g><g id="edge2" class="edge"><title>deployment/hco-operator-&gt;SSP/ssp-kubevirt-hyperconverged</title><path fill="none" stroke="#000" d="M1210.1853,-1132.1423C1301.509,-1147.6726 1415.6899,-1166.3679 1518,-1181 1543.7707,-1184.6856 1570.7085,-1188.3179 1597.5961,-1191.8006"/><polygon fill="#000" stroke="#000" points="1617.635 -1194.371 1596.653 -1200.753 1607.717 -1193.099 1597.798 -1191.826 1597.798 -1191.826 1597.798 -1191.826 1607.717 -1193.099 1598.943 -1182.899 1617.635 -1194.371 1617.635 -1194.371"/></g><g id="node5" class="node"><title>CDI/cdi-kubevirt-hyperconverged</title><path fill="none" stroke="#000" d="M2064,-1178C2064,-1178 1630,-1178 1630,-1178 1624,-1178 1618,-1172 1618,-1166 1618,-1166 1618,-1118 1618,-1118 1618,-1112 1624,-1106 1630,-1106 1630,-1106 2064,-1106 2064,-1106 2070,-1106 2076,-1112 2076,-1118 2076,-1118 2076,-1166 2076,-1166 2076,-1172 2070,-1178 2064,-1178"/><text x="1847" y="-1135.8" fill="#000" font-family="Courier,monospace" font-size="24" font-weight="bold" text-anchor="middle">CDI/cdi-kubevirt-hyperconverged</text></g><g id="edge3" class="edge"><title>deployment/hco-operator-&gt;CDI/cdi-kubevirt-hyperconverged</title><path fill="none" stroke="#000" d="M1210.0631,-1110.5074C1322.7934,-1116.0813 1471.981,-1123.4577 1597.6316,-1129.6703"/><polygon fill="#000" stroke="#000" points="1617.987 -1130.677 1597.566 -1138.678 1607.999 -1130.183 1598.011 -1129.689 1598.011 -1129.689 1598.011 -1129.689 1607.999 -1130.183 1598.456 -1120.7 1617.987 -1130.677 1617.987 -1130.677"/></g><g id="node8" class="node"><title>NetworkAddonsConfig/cluster</title><path fill="none" stroke="#000" d="M2028.5,-1099C2028.5,-1099 1665.5,-1099 1665.5,-1099 1659.5,-1099 1653.5,-1093 1653.5,-1087 1653.5,-1087 1653.5,-1039 1653.5,-1039 1653.5,-1033 1659.5,-1027 1665.5,-1027 1665.5,-1027 2028.5,-1027 2028.5,-1027 2034.5,-1027 2040.5,-1033 2040.5,-1039 2040.5,-1039 2040.5,-1087 2040.5,-1087 2040.5,-1093 2034.5,-1099 2028.5,-1099"/><text x="1847" y="-1056.8" fill="#000" font-family="Courier,monospace" font-size="24" font-weight="bold" text-anchor="middle">NetworkAddonsConfig/cluster</text></g><g id="edge5" class="edge"><title>deployment/hco-operator-&gt;NetworkAddonsConfig/cluster</title><path fill="none" stroke="#000" d="M1210.0631,-1093.7052C1333.6221,-1087.7487 1500.979,-1079.6809 1633.1364,-1073.3099"/><polygon fill="#000" stroke="#000" points="1653.2 -1072.343 1633.657 -1082.295 1643.212 -1072.824 1633.223 -1073.306 1633.223 -1073.306 1633.223 -1073.306 1643.212 -1072.824 1632.79 -1064.316 1653.2 -1072.343 1653.2 -1072.343"/></g><g id="node19" class="node"><title>deployment/kubevirt-plugin</title><path fill="none" stroke="#000" d="M2028.5,-1020C2028.5,-1020 1665.5,-1020 1665.5,-1020 1659.5,-1020 1653.5,-1014 1653.5,-1008 1653.5,-1008 1653.5,-960 1653.5,-960 1653.5,-954 1659.5,-948 1665.5,-948 1665.5,-948 2028.5,-948 2028.5,-948 2034.5,-948 2040.5,-954 2040.5,-960 2040.5,-960 2040.5,-1008 2040.5,-1008 2040.5,-1014 2034.5,-1020 2028.5,-1020"/><text x="1847" y="-977.8" fill="#000" font-family="Courier,monospace" font-size="24" font-weight="bold" text-anchor="middle">deployment/kubevirt-plugin</text></g><g id="edge17" class="edge"><title>deployment/hco-operator-&gt;deployment/kubevirt-plugin</title><path fill="none" stroke="#000" d="M1210.201,-1072.3019C1301.529,-1056.9855 1415.7091,-1038.5235 1518,-1024 1555.2324,-1018.7137 1594.8977,-1013.5194 1633.327,-1008.7147"/><polygon fill="#000" stroke="#000" points="1653.291 -1006.239 1634.55 -1017.632 1643.367 -1007.47 1633.443 -1008.7 1633.443 -1008.7 1633.443 -1008.7 1643.367 -1007.47 1632.335 -999.769 1653.291 -1006.239 1653.291 -1006.239"/></g><g id="node6" class="node"><title>CDIConfig/config</title><path fill="none" stroke="#000" d="M2524,-941C2524,-941 2332,-941 2332,-941 2326,-941 2320,-935 2320,-929 2320,-929 2320,-881 2320,-881 2320,-875 2326,-869 2332,-869 2332,-869 2524,-869 2524,-869 2530,-869 2536,-875 2536,-881 2536,-881 2536,-929 2536,-929 2536,-935 2530,-941 2524,-941"/><text x="2428" y="-898.8" fill="#000" font-family="Courier,monospace" font-size="24" font-weight="bold" text-anchor="middle">CDIConfig/config</text></g><g id="node7" class="node"><title>deployment/cdi-deployment</title><path fill="none" stroke="#000" d="M2021.5,-941C2021.5,-941 1672.5,-941 1672.5,-941 1666.5,-941 1660.5,-935 1660.5,-929 1660.5,-929 1660.5,-881 1660.5,-881 1660.5,-875 1666.5,-869 1672.5,-869 1672.5,-869 2021.5,-869 2021.5,-869 2027.5,-869 2033.5,-875 2033.5,-881 2033.5,-881 2033.5,-929 2033.5,-929 2033.5,-935 2027.5,-941 2021.5,-941"/><text x="1847" y="-898.8" fill="#000" font-family="Courier,monospace" font-size="24" font-weight="bold" text-anchor="middle">deployment/cdi-deployment</text></g><g id="edge4" class="edge"><title>deployment/cdi-deployment-&gt;CDIConfig/config</title><path fill="none" stroke="#000" d="M2033.6297,-905C2120.4412,-905 2221.5049,-905 2299.5891,-905"/><polygon fill="#000" stroke="#000" points="2319.945 -905 2299.945 -914 2309.945 -905 2299.945 -905 2299.945 -905 2299.945 -905 2309.945 -905 2299.945 -896 2319.945 -905 2319.945 -905"/></g><g id="node9" class="node"><title>deployment/cdi-apiserver</title><path fill="none" stroke="#000" d="M2014.5,-862C2014.5,-862 1679.5,-862 1679.5,-862 1673.5,-862 1667.5,-856 1667.5,-850 1667.5,-850 1667.5,-802 1667.5,-802 1667.5,-796 1673.5,-790 1679.5,-790 1679.5,-790 2014.5,-790 2014.5,-790 2020.5,-790 2026.5,-796 2026.5,-802 2026.5,-802 2026.5,-850 2026.5,-850 2026.5,-856 2020.5,-862 2014.5,-862"/><text x="1847" y="-819.8" fill="#000" font-family="Courier,monospace" font-size="24" font-weight="bold" text-anchor="middle">deployment/cdi-apiserver</text></g><g id="node10" class="node"><title>deployment/cdi-operator</title><path fill="none" stroke="#000" d="M1198,-823C1198,-823 878,-823 878,-823 872,-823 866,-817 866,-811 866,-811 866,-763 866,-763 866,-757 872,-751 878,-751 878,-751 1198,-751 1198,-751 1204,-751 1210,-757 1210,-763 1210,-763 1210,-811 1210,-811 1210,-817 1204,-823 1198,-823"/><text x="1038" y="-780.8" fill="#000" font-family="Courier,monospace" font-size="24" font-weight="bold" text-anchor="middle">deployment/cdi-operator</text></g><g id="edge7" class="edge"><title>deployment/cdi-operator-&gt;deployment/cdi-deployment</title><path fill="none" stroke="#000" d="M1210.201,-816.6981C1301.529,-832.0145 1415.7091,-850.4765 1518,-865 1557.4424,-870.6001 1599.6151,-876.0969 1640.1562,-881.1367"/><polygon fill="#000" stroke="#000" points="1660.225 -883.611 1639.274 -890.096 1650.3 -882.387 1640.376 -881.164 1640.376 -881.164 1640.376 -881.164 1650.3 -882.387 1641.477 -872.231 1660.225 -883.611 1660.225 -883.611"/></g><g id="edge6" class="edge"><title>deployment/cdi-operator-&gt;deployment/cdi-apiserver</title><path fill="none" stroke="#000" d="M1210.0631,-795.2948C1338.035,-801.464 1512.9889,-809.8981 1647.1578,-816.3661"/><polygon fill="#000" stroke="#000" points="1667.486 -817.346 1647.076 -825.372 1657.498 -816.865 1647.509 -816.383 1647.509 -816.383 1647.509 -816.383 1657.498 -816.865 1647.943 -807.393 1667.486 -817.346 1667.486 -817.346"/></g><g id="node12" class="node"><title>deployment/cdi-uploadproxy</title><path fill="none" stroke="#000" d="M2028.5,-783C2028.5,-783 1665.5,-783 1665.5,-783 1659.5,-783 1653.5,-777 1653.5,-771 1653.5,-771 1653.5,-723 1653.5,-723 1653.5,-717 1659.5,-711 1665.5,-711 1665.5,-711 2028.5,-711 2028.5,-711 2034.5,-711 2040.5,-717 2040.5,-723 2040.5,-723 2040.5,-771 2040.5,-771 2040.5,-777 2034.5,-783 2028.5,-783"/><text x="1847" y="-740.8" fill="#000" font-family="Courier,monospace" font-size="24" font-weight="bold" text-anchor="middle">deployment/cdi-uploadproxy</text></g><g id="edge9" class="edge"><title>deployment/cdi-operator-&gt;deployment/cdi-uploadproxy</title><path fill="none" stroke="#000" d="M1210.0631,-778.4926C1333.6221,-772.3833 1500.979,-764.1086 1633.1364,-757.5742"/><polygon fill="#000" stroke="#000" points="1653.2 -756.582 1633.669 -766.559 1643.212 -757.076 1633.225 -757.57 1633.225 -757.57 1633.225 -757.57 1643.212 -757.076 1632.78 -748.581 1653.2 -756.582 1653.2 -756.582"/></g><g id="node11" class="node"><title>olm</title><path fill="none" stroke="#000" d="M375,-546C375,-546 183,-546 183,-546 177,-546 171,-540 171,-534 171,-534 171,-486 171,-486 171,-480 177,-474 183,-474 183,-474 375,-474 375,-474 381,-474 387,-480 387,-486 387,-486 387,-534 387,-534 387,-540 381,-546 375,-546"/><text x="279" y="-503.8" fill="#000" font-family="Courier,monospace" font-size="24" font-weight="bold" text-anchor="middle">olm</text></g><g id="edge11" class="edge"><title>olm-&gt;deployment/hco-operator</title><path fill="none" stroke="#000" d="M325.3363,-546.1411C455.9641,-648.0274 827.3066,-937.6647 975.6571,-1053.3742"/><polygon fill="#000" stroke="#000" points="991.789 -1065.957 970.484 -1060.753 983.904 -1059.806 976.019 -1053.656 976.019 -1053.656 976.019 -1053.656 983.904 -1059.806 981.554 -1046.56 991.789 -1065.957 991.789 -1065.957"/></g><g id="edge8" class="edge"><title>olm-&gt;deployment/cdi-operator</title><path fill="none" stroke="#000" d="M345.379,-546.0579C427.2272,-589.3 571.5451,-661.6156 702,-707 747.9188,-722.9749 798.4549,-736.8554 846.0776,-748.3659"/><polygon fill="#000" stroke="#000" points="865.576 -752.988 844.039 -757.132 855.846 -750.681 846.115 -748.375 846.115 -748.375 846.115 -748.375 855.846 -750.681 848.191 -739.617 865.576 -752.988 865.576 -752.988"/></g><g id="node13" class="node"><title>deployment/cluster-network-addons-operator</title><path fill="none" stroke="#000" d="M1333.5,-704C1333.5,-704 742.5,-704 742.5,-704 736.5,-704 730.5,-698 730.5,-692 730.5,-692 730.5,-644 730.5,-644 730.5,-638 736.5,-632 742.5,-632 742.5,-632 1333.5,-632 1333.5,-632 1339.5,-632 1345.5,-638 1345.5,-644 1345.5,-644 1345.5,-692 1345.5,-692 1345.5,-698 1339.5,-704 1333.5,-704"/><text x="1038" y="-661.8" fill="#000" font-family="Courier,monospace" font-size="24" font-weight="bold" text-anchor="middle">deployment/cluster-network-addons-operator</text></g><g id="edge10" class="edge"><title>olm-&gt;deployment/cluster-network-addons-operator</title><path fill="none" stroke="#000" d="M387.0082,-545.0812C471.8308,-571.4219 593.3639,-606.5132 702,-628 704.7374,-628.5414 707.4888,-629.0765 710.2529,-629.6053"/><polygon fill="#000" stroke="#000" points="730.086 -633.258 708.786 -638.486 720.251 -631.447 710.416 -629.635 710.416 -629.635 710.416 -629.635 720.251 -631.447 712.047 -620.784 730.086 -633.258 730.086 -633.258"/></g><g id="node14" class="node"><title>deployment/hco-webhook</title><path fill="none" stroke="#000" d="M1191,-625C1191,-625 885,-625 885,-625 879,-625 873,-619 873,-613 873,-613 873,-565 873,-565 873,-559 879,-553 885,-553 885,-553 1191,-553 1191,-553 1197,-553 1203,-559 1203,-565 1203,-565 1203,-613 1203,-613 1203,-619 1197,-625 1191,-625"/><text x="1038" y="-582.8" fill="#000" font-family="Courier,monospace" font-size="24" font-weight="bold" text-anchor="middle">deployment/hco-webhook</text></g><g id="edge12" class="edge"><title>olm-&gt;deployment/hco-webhook</title><path fill="none" stroke="#000" d="M387.3429,-521.2768C508.4156,-533.8786 706.5647,-554.5028 852.4362,-569.6857"/><polygon fill="#000" stroke="#000" points="872.659 -571.791 851.835 -578.672 862.713 -570.755 852.766 -569.72 852.766 -569.72 852.766 -569.72 862.713 -570.755 853.698 -560.768 872.659 -571.791 872.659 -571.791"/></g><g id="node15" class="node"><title>deployment/hostpath-provisioner-operator</title><path fill="none" stroke="#000" d="M1319.5,-546C1319.5,-546 756.5,-546 756.5,-546 750.5,-546 744.5,-540 744.5,-534 744.5,-534 744.5,-486 744.5,-486 744.5,-480 750.5,-474 756.5,-474 756.5,-474 1319.5,-474 1319.5,-474 1325.5,-474 1331.5,-480 1331.5,-486 1331.5,-486 1331.5,-534 1331.5,-534 1331.5,-540 1325.5,-546 1319.5,-546"/><text x="1038" y="-503.8" fill="#000" font-family="Courier,monospace" font-size="24" font-weight="bold" text-anchor="middle">deployment/hostpath-provisioner-operator</text></g><g id="edge13" class="edge"><title>olm-&gt;deployment/hostpath-provisioner-operator</title><path fill="none" stroke="#000" d="M387.3429,-510C475.4223,-510 604.294,-510 724.1539,-510"/><polygon fill="#000" stroke="#000" points="744.467 -510 724.467 -519 734.467 -510 724.467 -510 724.467 -510 724.467 -510 734.467 -510 724.467 -501 744.467 -510 744.467 -510"/></g><g id="node16" class="node"><title>deployment/hyperconverged-cluster-cli-download</title><path fill="none" stroke="#000" d="M1362,-467C1362,-467 714,-467 714,-467 708,-467 702,-461 702,-455 702,-455 702,-407 702,-407 702,-401 708,-395 714,-395 714,-395 1362,-395 1362,-395 1368,-395 1374,-401 1374,-407 1374,-407 1374,-455 1374,-455 1374,-461 1368,-467 1362,-467"/><text x="1038" y="-424.8" fill="#000" font-family="Courier,monospace" font-size="24" font-weight="bold" text-anchor="middle">deployment/hyperconverged-cluster-cli-download</text></g><g id="edge14" class="edge"><title>olm-&gt;deployment/hyperconverged-cluster-cli-download</title><path fill="none" stroke="#000" d="M387.3429,-498.7232C465.1353,-490.6262 574.748,-479.2173 681.8683,-468.0677"/><polygon fill="#000" stroke="#000" points="701.833 -465.99 682.872 -477.012 691.887 -467.025 681.94 -468.06 681.94 -468.06 681.94 -468.06 691.887 -467.025 681.009 -459.109 701.833 -465.99 701.833 -465.99"/></g><g id="node20" class="node"><title>deployment/ssp-operator</title><path fill="none" stroke="#000" d="M1198,-388C1198,-388 878,-388 878,-388 872,-388 866,-382 866,-376 866,-376 866,-328 866,-328 866,-322 872,-316 878,-316 878,-316 1198,-316 1198,-316 1204,-316 1210,-322 1210,-328 1210,-328 1210,-376 1210,-376 1210,-382 1204,-388 1198,-388"/><text x="1038" y="-345.8" fill="#000" font-family="Courier,monospace" font-size="24" font-weight="bold" text-anchor="middle">deployment/ssp-operator</text></g><g id="edge18" class="edge"><title>olm-&gt;deployment/ssp-operator</title><path fill="none" stroke="#000" d="M387.0241,-503.467C439.6197,-498.046 503.1798,-488.131 558,-470 627.1044,-447.1447 632.6274,-414.0276 702,-392 747.5412,-377.5395 798.0621,-368.23 845.801,-362.258"/><polygon fill="#000" stroke="#000" points="865.71 -359.936 846.887 -371.192 855.778 -361.095 845.845 -362.253 845.845 -362.253 845.845 -362.253 855.778 -361.095 844.802 -353.314 865.71 -359.936 865.71 -359.936"/></g><g id="node21" class="node"><title>deployment/tekton-tasks-operator</title><path fill="none" stroke="#000" d="M1262.5,-309C1262.5,-309 813.5,-309 813.5,-309 807.5,-309 801.5,-303 801.5,-297 801.5,-297 801.5,-249 801.5,-249 801.5,-243 807.5,-237 813.5,-237 813.5,-237 1262.5,-237 1262.5,-237 1268.5,-237 1274.5,-243 1274.5,-249 1274.5,-249 1274.5,-297 1274.5,-297 1274.5,-303 1268.5,-309 1262.5,-309"/><text x="1038" y="-266.8" fill="#000" font-family="Courier,monospace" font-size="24" font-weight="bold" text-anchor="middle">deployment/tekton-tasks-operator</text></g><g id="edge19" class="edge"><title>olm-&gt;deployment/tekton-tasks-operator</title><path fill="none" stroke="#000" d="M387.2524,-511.3481C441.247,-507.9456 505.9574,-497.4574 558,-470 641.7428,-425.8176 617.735,-356.1781 702,-313 726.7305,-300.3279 753.7935,-290.9731 781.4828,-284.1424"/><polygon fill="#000" stroke="#000" points="801.229 -279.705 783.689 -292.871 791.472 -281.898 781.716 -284.09 781.716 -284.09 781.716 -284.09 791.472 -281.898 779.742 -275.309 801.229 -279.705 801.229 -279.705"/></g><g id="node23" class="node"><title>deployment/virt-operator</title><path fill="none" stroke="#000" d="M1205.5,-230C1205.5,-230 870.5,-230 870.5,-230 864.5,-230 858.5,-224 858.5,-218 858.5,-218 858.5,-170 858.5,-170 858.5,-164 864.5,-158 870.5,-158 870.5,-158 1205.5,-158 1205.5,-158 1211.5,-158 1217.5,-164 1217.5,-170 1217.5,-170 1217.5,-218 1217.5,-218 1217.5,-224 1211.5,-230 1205.5,-230"/><text x="1038" y="-187.8" fill="#000" font-family="Courier,monospace" font-size="24" font-weight="bold" text-anchor="middle">deployment/virt-operator</text></g><g id="edge23" class="edge"><title>olm-&gt;deployment/virt-operator</title><path fill="none" stroke="#000" d="M387.3285,-515.5953C442.4514,-513.4732 508.1523,-502.8489 558,-470 660.5985,-402.3891 598.6006,-300.3796 702,-234 742.2092,-208.1868 790.7863,-194.7386 838.3549,-188.4039"/><polygon fill="#000" stroke="#000" points="858.293 -186.143 839.434 -197.339 848.356 -187.27 838.42 -188.397 838.42 -188.397 838.42 -188.397 848.356 -187.27 837.406 -179.454 858.293 -186.143 858.293 -186.143"/></g><g id="node17" class="node"><title>deployment/kubemacpool-cert-manager</title><path fill="none" stroke="#000" d="M2092.5,-704C2092.5,-704 1601.5,-704 1601.5,-704 1595.5,-704 1589.5,-698 1589.5,-692 1589.5,-692 1589.5,-644 1589.5,-644 1589.5,-638 1595.5,-632 1601.5,-632 1601.5,-632 2092.5,-632 2092.5,-632 2098.5,-632 2104.5,-638 2104.5,-644 2104.5,-644 2104.5,-692 2104.5,-692 2104.5,-698 2098.5,-704 2092.5,-704"/><text x="1847" y="-661.8" fill="#000" font-family="Courier,monospace" font-size="24" font-weight="bold" text-anchor="middle">deployment/kubemacpool-cert-manager</text></g><g id="edge15" class="edge"><title>deployment/cluster-network-addons-operator-&gt;deployment/kubemacpool-cert-manager</title><path fill="none" stroke="#000" d="M1345.5788,-668C1419.085,-668 1497.1285,-668 1569.2024,-668"/><polygon fill="#000" stroke="#000" points="1589.364 -668 1569.364 -677 1579.364 -668 1569.364 -668 1569.364 -668 1569.364 -668 1579.364 -668 1569.364 -659 1589.364 -668 1589.364 -668"/></g><g id="node18" class="node"><title>deployment/kubemacpool-mac-controller-manager</title><path fill="none" stroke="#000" d="M2164,-625C2164,-625 1530,-625 1530,-625 1524,-625 1518,-619 1518,-613 1518,-613 1518,-565 1518,-565 1518,-559 1524,-553 1530,-553 1530,-553 2164,-553 2164,-553 2170,-553 2176,-559 2176,-565 2176,-565 2176,-613 2176,-613 2176,-619 2170,-625 2164,-625"/><text x="1847" y="-582.8" fill="#000" font-family="Courier,monospace" font-size="24" font-weight="bold" text-anchor="middle">deployment/kubemacpool-mac-controller-manager</text></g><g id="edge16" class="edge"><title>deployment/cluster-network-addons-operator-&gt;deployment/kubemacpool-mac-controller-manager</title><path fill="none" stroke="#000" d="M1345.5788,-637.9645C1395.274,-633.1117 1447.0431,-628.0564 1497.6393,-623.1156"/><polygon fill="#000" stroke="#000" points="1517.719 -621.155 1498.688 -632.056 1507.766 -622.127 1497.813 -623.099 1497.813 -623.099 1497.813 -623.099 1507.766 -622.127 1496.938 -614.141 1517.719 -621.155 1517.719 -621.155"/></g><g id="node27" class="node"><title>daemonset/bridge-marker</title><path fill="none" stroke="#000" d="M2007,-546C2007,-546 1687,-546 1687,-546 1681,-546 1675,-540 1675,-534 1675,-534 1675,-486 1675,-486 1675,-480 1681,-474 1687,-474 1687,-474 2007,-474 2007,-474 2013,-474 2019,-480 2019,-486 2019,-486 2019,-534 2019,-534 2019,-540 2013,-546 2007,-546"/><text x="1847" y="-503.8" fill="#000" font-family="Courier,monospace" font-size="24" font-weight="bold" text-anchor="middle">daemonset/bridge-marker</text></g><g id="edge25" class="edge"><title>deployment/cluster-network-addons-operator-&gt;daemonset/bridge-marker</title><path fill="none" stroke="#000" d="M1345.7347,-636.1795C1355.3182,-633.6549 1364.7616,-630.9334 1374,-628 1443.3726,-605.9724 1448.6549,-572.1141 1518,-550 1561.3351,-536.1804 1609.2786,-527.0815 1654.8521,-521.1056"/><polygon fill="#000" stroke="#000" points="1674.906 -518.653 1656.147 -530.014 1664.98 -519.867 1655.054 -521.081 1655.054 -521.081 1655.054 -521.081 1664.98 -519.867 1653.961 -512.148 1674.906 -518.653 1674.906 -518.653"/></g><g id="node28" class="node"><title>daemonset/kube-cni-linux-bridge-plugin</title><path fill="none" stroke="#000" d="M2114,-467C2114,-467 1580,-467 1580,-467 1574,-467 1568,-461 1568,-455 1568,-455 1568,-407 1568,-407 1568,-401 1574,-395 1580,-395 1580,-395 2114,-395 2114,-395 2120,-395 2126,-401 2126,-407 2126,-407 2126,-455 2126,-455 2126,-461 2120,-467 2114,-467"/><text x="1847" y="-424.8" fill="#000" font-family="Courier,monospace" font-size="24" font-weight="bold" text-anchor="middle">daemonset/kube-cni-linux-bridge-plugin</text></g><g id="edge26" class="edge"><title>deployment/cluster-network-addons-operator-&gt;daemonset/kube-cni-linux-bridge-plugin</title><path fill="none" stroke="#000" d="M1345.681,-640.7425C1355.3823,-636.9222 1364.8508,-632.6881 1374,-628 1458.265,-584.8219 1433.789,-514.2833 1518,-471 1527.8351,-465.9449 1538.0478,-461.4233 1548.5259,-457.3837"/><polygon fill="#000" stroke="#000" points="1567.649 -450.622 1551.793 -465.774 1558.221 -453.956 1548.793 -457.289 1548.793 -457.289 1548.793 -457.289 1558.221 -453.956 1545.793 -448.804 1567.649 -450.622 1567.649 -450.622"/></g><g id="node26" class="node"><title>deployment/virt-template-validator</title><path fill="none" stroke="#000" d="M2085.5,-388C2085.5,-388 1608.5,-388 1608.5,-388 1602.5,-388 1596.5,-382 1596.5,-376 1596.5,-376 1596.5,-328 1596.5,-328 1596.5,-322 1602.5,-316 1608.5,-316 1608.5,-316 2085.5,-316 2085.5,-316 2091.5,-316 2097.5,-322 2097.5,-328 2097.5,-328 2097.5,-376 2097.5,-376 2097.5,-382 2091.5,-388 2085.5,-388"/><text x="1847" y="-345.8" fill="#000" font-family="Courier,monospace" font-size="24" font-weight="bold" text-anchor="middle">deployment/virt-template-validator</text></g><g id="edge24" class="edge"><title>deployment/ssp-operator-&gt;deployment/virt-template-validator</title><path fill="none" stroke="#000" d="M1210.0631,-352C1316.5247,-352 1455.5018,-352 1576.4621,-352"/><polygon fill="#000" stroke="#000" points="1596.487 -352 1576.488 -361 1586.487 -352 1576.487 -352 1576.487 -352 1576.487 -352 1586.487 -352 1576.487 -343 1596.487 -352 1596.487 -352"/></g><g id="node22" class="node"><title>deployment/virt-api</title><path fill="none" stroke="#000" d="M1978.5,-309C1978.5,-309 1715.5,-309 1715.5,-309 1709.5,-309 1703.5,-303 1703.5,-297 1703.5,-297 1703.5,-249 1703.5,-249 1703.5,-243 1709.5,-237 1715.5,-237 1715.5,-237 1978.5,-237 1978.5,-237 1984.5,-237 1990.5,-243 1990.5,-249 1990.5,-249 1990.5,-297 1990.5,-297 1990.5,-303 1984.5,-309 1978.5,-309"/><text x="1847" y="-266.8" fill="#000" font-family="Courier,monospace" font-size="24" font-weight="bold" text-anchor="middle">deployment/virt-api</text></g><g id="edge20" class="edge"><title>deployment/virt-operator-&gt;deployment/virt-api</title><path fill="none" stroke="#000" d="M1217.5433,-211.5327C1356.828,-225.134 1548.2907,-243.8306 1683.377,-257.022"/><polygon fill="#000" stroke="#000" points="1703.303 -258.968 1682.523 -265.981 1693.35 -257.996 1683.398 -257.024 1683.398 -257.024 1683.398 -257.024 1693.35 -257.996 1684.272 -248.066 1703.303 -258.968 1703.303 -258.968"/></g><g id="node24" class="node"><title>deployment/virt-controller</title><path fill="none" stroke="#000" d="M2028.5,-230C2028.5,-230 1665.5,-230 1665.5,-230 1659.5,-230 1653.5,-224 1653.5,-218 1653.5,-218 1653.5,-170 1653.5,-170 1653.5,-164 1659.5,-158 1665.5,-158 1665.5,-158 2028.5,-158 2028.5,-158 2034.5,-158 2040.5,-164 2040.5,-170 2040.5,-170 2040.5,-218 2040.5,-218 2040.5,-224 2034.5,-230 2028.5,-230"/><text x="1847" y="-187.8" fill="#000" font-family="Courier,monospace" font-size="24" font-weight="bold" text-anchor="middle">deployment/virt-controller</text></g><g id="edge21" class="edge"><title>deployment/virt-operator-&gt;deployment/virt-controller</title><path fill="none" stroke="#000" d="M1217.5433,-194C1340.3976,-194 1503.8459,-194 1633.3963,-194"/><polygon fill="#000" stroke="#000" points="1653.477 -194 1633.477 -203 1643.477 -194 1633.477 -194 1633.477 -194 1633.477 -194 1643.477 -194 1633.477 -185 1653.477 -194 1653.477 -194"/></g><g id="node25" class="node"><title>deployment/virt-exportproxy</title><path fill="none" stroke="#000" d="M2035.5,-151C2035.5,-151 1658.5,-151 1658.5,-151 1652.5,-151 1646.5,-145 1646.5,-139 1646.5,-139 1646.5,-91 1646.5,-91 1646.5,-85 1652.5,-79 1658.5,-79 1658.5,-79 2035.5,-79 2035.5,-79 2041.5,-79 2047.5,-85 2047.5,-91 2047.5,-91 2047.5,-139 2047.5,-139 2047.5,-145 2041.5,-151 2035.5,-151"/><text x="1847" y="-108.8" fill="#000" font-family="Courier,monospace" font-size="24" font-weight="bold" text-anchor="middle">deployment/virt-exportproxy</text></g><g id="edge22" class="edge"><title>deployment/virt-operator-&gt;deployment/virt-exportproxy</title><path fill="none" stroke="#000" d="M1217.5433,-176.4673C1338.186,-164.6864 1497.9743,-149.0829 1626.3674,-136.5451"/><polygon fill="#000" stroke="#000" points="1646.288 -134.6 1627.257 -145.501 1636.335 -135.572 1626.382 -136.544 1626.382 -136.544 1626.382 -136.544 1636.335 -135.572 1625.508 -127.586 1646.288 -134.6 1646.288 -134.6"/></g><g id="node29" class="node"><title>daemonset/virt-handler</title><path fill="none" stroke="#000" d="M2000,-72C2000,-72 1694,-72 1694,-72 1688,-72 1682,-66 1682,-60 1682,-60 1682,-12 1682,-12 1682,-6 1688,0 1694,0 1694,0 2000,0 2000,0 2006,0 2012,-6 2012,-12 2012,-12 2012,-60 2012,-60 2012,-66 2006,-72 2000,-72"/><text x="1847" y="-29.8" fill="#000" font-family="Courier,monospace" font-size="24" font-weight="bold" text-anchor="middle">daemonset/virt-handler</text></g><g id="edge27" class="edge"><title>deployment/virt-operator-&gt;daemonset/virt-handler</title><path fill="none" stroke="#000" d="M1166.4593,-157.9651C1262.6113,-132.0837 1397.7124,-98.0155 1518,-76 1564.4285,-67.5025 1614.8835,-60.3437 1662.0175,-54.5381"/><polygon fill="#000" stroke="#000" points="1681.993 -52.133 1663.212 -63.459 1672.065 -53.328 1662.136 -54.524 1662.136 -54.524 1662.136 -54.524 1672.065 -53.328 1661.061 -45.588 1681.993 -52.133 1681.993 -52.133"/></g></g></svg>